HIERARCHY
ROOT SimulationBone
{
	OFFSET 0.000000 0.000000 0.000000
	CHANNELS 6 Xposition Yposition Zposition Zrotation Yrotation Xrotation 
	JOINT Hips
	{
		OFFSET 0.000000 0.000000 0.000000
		CHANNELS 6 Xposition Yposition Zposition Zrotation Yrotation Xrotation 
		JOINT RightUpLeg
		{
			OFFSET 0.103456 1.857840 10.548501
			CHANNELS 3 Zrotation Yrotation Xrotation
			JOINT RightLeg
			{
				OFFSET 43.499992 -0.000038 -0.000006
				CHANNELS 3 Zrotation Yrotation Xrotation
				JOINT RightFoot
				{
					OFFSET 42.372196 0.000031 0.000002
					CHANNELS 3 Zrotation Yrotation Xrotation
					JOINT RightToe
					{
						OFFSET 17.299974 -0.000010 -0.000017
						CHANNELS 3 Zrotation Yrotation Xrotation
						End Site
						{
							OFFSET 0.000000 0.000000 0.000000
						}
					}
				}
			}
		}
		JOINT LeftUpLeg
		{
			OFFSET 0.103462 1.857831 -10.548510
			CHANNELS 3 Zrotation Yrotation Xrotation
			JOINT LeftLeg
			{
				OFFSET 43.500046 -0.000015 0.000008
				CHANNELS 3 Zrotation Yrotation Xrotation
				JOINT LeftFoot
				{
					OFFSET 42.372265 -0.000015 0.000004
					CHANNELS 3 Zrotation Yrotation Xrotation
					JOINT LeftToe
					{
						OFFSET 17.299995 -0.000004 0.000013
						CHANNELS 3 Zrotation Yrotation Xrotation
						End Site
						{
							OFFSET 0.000000 0.000000 0.000000
						}
					}
				}
			}
		}
		JOINT Spine
		{
			OFFSET 6.901966 -2.603716 -0.000002
			CHANNELS 3 Zrotation Yrotation Xrotation
			JOINT Spine1
			{
				OFFSET 12.588102 -0.000001 0.000005
				CHANNELS 3 Zrotation Yrotation Xrotation
				JOINT Spine2
				{
					OFFSET 12.343201 -0.000023 -0.000011
					CHANNELS 3 Zrotation Yrotation Xrotation
					JOINT Neck
					{
						OFFSET 25.832901 0.000011 0.000007
						CHANNELS 3 Zrotation Yrotation Xrotation
						JOINT Head
						{
							OFFSET 11.766600 -0.000002 0.000002
							CHANNELS 3 Zrotation Yrotation Xrotation
							End Site
							{
								OFFSET 0.000000 0.000000 0.000000
							}
						}
					}
					JOINT RightShoulder
					{
						OFFSET 19.745907 -1.480350 6.000119
						CHANNELS 3 Zrotation Yrotation Xrotation
						JOINT RightArm
						{
							OFFSET 11.284122 -0.000013 -0.000023
							CHANNELS 3 Zrotation Yrotation Xrotation
							JOINT RightForeArm
							{
								OFFSET 33.000057 0.000005 0.000025
								CHANNELS 3 Zrotation Yrotation Xrotation
								JOINT RightHand
								{
									OFFSET 25.199997 0.000020 0.000019
									CHANNELS 3 Zrotation Yrotation Xrotation
									End Site
									{
										OFFSET 0.000000 0.000000 0.000000
									}
								}
							}
						}
					}
					JOINT LeftShoulder
					{
						OFFSET 19.746096 -1.480352 -6.000062
						CHANNELS 3 Zrotation Yrotation Xrotation
						JOINT LeftArm
						{
							OFFSET 11.284150 0.000007 -0.000012
							CHANNELS 3 Zrotation Yrotation Xrotation
							JOINT LeftForeArm
							{
								OFFSET 33.000092 0.000019 0.000012
								CHANNELS 3 Zrotation Yrotation Xrotation
								JOINT LeftHand
								{
									OFFSET 25.199797 0.000118 0.000427
									CHANNELS 3 Zrotation Yrotation Xrotation
									End Site
									{
										OFFSET 0.000000 0.000000 0.000000
									}
								}
							}
						}
					}
				}
			}
		}
	}
}
MOTION
Frames: 7
Frame Time: 0.016667
-279.038339 0.000000 -484.651263 0.000000 86.963605 0.000000 -9.131670 65.464577 -1.738698 77.307481 -2.406478 174.494466 166.333056 -8.251403 -177.566067 -92.805310 4.221955 4.482710 86.046408 -7.085403 -18.170282 21.454565 0.003108 0.000015 101.269008 1.521796 -153.579384 -52.869563 0.737145 9.511162 66.536218 -14.284262 -19.844891 21.454551 -0.003092 0.000000 8.091941 0.304044 -1.255872 6.163792 0.674286 -2.493841 5.846020 0.659087 -2.497870 30.293271 0.599716 2.917262 -25.204003 11.237881 -1.874746 -13.365936 -85.319506 -168.625005 -60.601139 -1.610263 -63.083380 -87.563639 -4.414953 2.547069 -2.330123 -17.102106 -7.068844 84.107890 82.605023 -94.814047 -26.619107 -45.989842 49.191073 -98.928322 0.202752 -2.716484 -7.259587 21.592263 -5.174391 
-277.867556 0.000000 -488.582577 0.000000 84.736883 0.000000 -8.761229 65.327796 -1.625815 79.059940 -2.645119 177.271376 166.820372 -9.088112 -176.813865 -95.881684 3.986193 5.002865 88.895090 -7.068518 -18.864422 21.454552 0.003109 0.000012 101.314007 3.472977 -153.807114 -61.553742 0.076007 9.045614 70.524594 -13.992739 -22.301845 21.454556 -0.003098 -0.000002 8.646037 0.384724 -1.188939 7.270670 0.843354 -2.351333 6.952823 0.829001 -2.356378 30.616196 0.486272 2.113598 -26.453715 11.152499 -2.856384 26.786160 -85.258349 151.527365 -57.074983 2.810009 -63.514928 -89.872589 -2.605449 2.573324 -2.350726 -17.135220 -6.508045 82.078297 84.471104 -96.679298 -26.730579 -48.566268 48.833078 -95.887061 -0.489730 -2.207617 -8.064802 18.437646 -10.821852 
-276.616304 0.000000 -492.561732 0.000000 82.533765 0.000000 -8.542038 65.302963 -1.445899 79.902561 -1.680221 178.690876 165.580328 -10.585606 -176.171889 -99.654406 4.058129 3.461743 90.969581 -5.356886 -17.332223 21.454548 0.003110 0.000014 102.282608 3.520287 -153.611869 -67.741665 0.838847 9.099463 75.196243 -13.341113 -23.707465 21.454555 -0.003096 -0.000001 9.103304 0.726964 -0.963726 8.182050 1.520199 -1.873845 7.864010 1.508718 -1.882988 29.402321 -0.334312 1.768230 -25.304576 11.660395 -3.293152 47.347939 -85.772776 131.116917 -55.949948 7.172206 -62.915337 -91.031203 -2.020257 2.534228 -2.903006 -16.624957 -4.842365 89.122044 85.038943 -89.608913 -26.621177 -48.492228 42.843132 -90.247562 3.766477 -2.579528 -6.553175 17.781363 -10.568905 
-275.290346 0.000000 -496.578844 0.000000 80.361251 0.000000 -8.536587 65.502465 -1.284471 80.007292 -0.409374 179.390653 162.581255 -11.675955 -175.266470 -103.437669 4.177601 0.550925 92.525778 -2.698199 -14.690627 21.454549 0.003111 0.000019 103.677787 2.592047 -153.307764 -72.021900 2.144011 9.266515 80.012193 -12.474407 -24.299908 21.454550 -0.003091 0.000001 9.443351 1.088054 -0.684796 8.863081 2.225313 -1.284545 8.544810 2.217385 -1.297968 27.348552 -1.137841 1.743781 -23.014627 12.308904 -3.315801 76.552918 -86.945917 101.986523 -55.909885 11.297048 -61.049335 -90.669945 -2.643840 2.536029 -3.555215 -15.831954 -2.653450 101.376944 84.757519 -77.397796 -26.863951 -47.121858 34.285444 -83.027759 10.305817 -2.901526 -4.228852 18.537023 -7.281594 
-273.895445 0.000000 -500.624029 0.000000 78.225732 0.000000 -8.821482 66.038689 -1.217077 79.430359 0.214588 179.987224 157.828104 -11.252397 -173.842917 -106.534401 4.222242 -3.016858 93.754659 0.250972 -12.107217 21.454551 0.003110 0.000023 105.005039 1.628099 -153.192495 -74.974425 3.043135 9.352002 84.438848 -11.523510 -24.345280 21.454548 -0.003088 0.000002 9.642782 1.227219 -0.460428 9.265974 2.487339 -0.821297 8.947591 2.482210 -0.836320 25.150744 -1.189254 1.849715 -20.846204 12.616870 -3.089682 124.746982 -86.524223 53.866969 -55.595553 15.016162 -57.460468 -88.416231 -4.462168 2.588254 -3.901446 -15.048018 -0.504406 113.354076 84.178922 -65.467790 -27.751251 -45.878885 26.061784 -75.188525 16.331971 -2.803828 -2.367723 19.685739 -3.732998 
-272.437365 0.000000 -504.687403 0.000000 76.132907 0.000000 -9.431594 66.962292 -1.279424 78.240298 -0.420872 -179.041842 151.617158 -8.636190 -172.022849 -108.364319 4.237388 -6.576229 94.679890 2.958615 -10.466539 21.454550 0.003108 0.000024 105.981796 1.339831 -153.402888 -77.108161 2.854603 9.265618 88.104610 -10.559844 -24.096485 21.454549 -0.003089 0.000002 9.699721 0.995387 -0.364170 9.382396 2.017018 -0.646522 9.064106 2.012951 -0.658706 23.419857 -0.060737 1.876739 -19.827548 12.285681 -2.819929 143.694490 -83.918384 35.049807 -53.980222 18.166556 -51.771605 -84.058676 -7.368040 2.605877 -3.738462 -14.636759 1.100257 124.603848 83.828738 -54.218021 -28.924158 -45.812894 20.012608 -67.688978 19.682782 -2.647799 -1.874913 20.606370 -1.966071 
-270.921870 0.000000 -508.759080 0.000000 74.087715 0.000000 -10.187394 68.077019 -1.395042 76.869032 -1.553922 -177.869380 144.967335 -5.158604 -170.353428 -108.832302 4.329891 -9.667556 95.208683 5.202705 -9.467805 21.454551 0.003107 0.000022 107.111217 1.468505 -153.632113 -78.693989 2.047813 9.012085 91.275246 -9.561474 -23.641455 21.454553 -0.003094 0.000001 9.707627 0.606610 -0.325939 9.399726 1.237718 -0.601562 9.081560 1.233928 -0.609036 22.397853 1.489395 1.803596 -19.980902 11.699320 -2.662003 146.976091 -81.082985 31.927015 -51.568699 21.077882 -44.636566 -78.063385 -10.865337 2.580750 -3.532815 -15.112675 1.790956 134.622011 83.627686 -44.168951 -29.875318 -46.553902 15.611456 -61.167697 20.621321 -2.529366 -1.494574 21.111118 -0.523803 
